# xmcd
#
# Track frame offsets: 
#        150
#        18458
#        35192
#        49971
#        72882
#        90201
#        110152
#        130031
#        147365
#        176322
#        195306
#        214230
#
# Disc length: 3141 seconds
#
# Revision: 1
# Processed by: cddbd v1.5.2PL0 Copyright (c) Steve Scherf et al.
# Submitted via: ExactAudioCopy v0.99pb5
#
DISCID=a90c430c
DTITLE=Various Artist - Wolf Scatto Secondo
DYEAR=2005
DGENRE=Jazz
TTITLE0=Marco Parente - La mia Rivoluzione
TTITLE1=Cesare Basile - In coda
TTITLE2=Caravane de Ville - Hanabel
TTITLE3=Brychan - Diamonds
TTITLE4=Oz - Pensieri soffici
TTITLE5=Estrela Guia - Tico Tao
TTITLE6=Lome' - BluBu
TTITLE7=Alessio Lega - Straniero
TTITLE8=Transgender - Multis
TTITLE9=Fabrizio Consoli - Que vida es
TTITLE10=Nico Di Battista - Blue night
TTITLE11=Belfagor - I fiori di Berlino
EXTD=YEAR: 2005
EXTT0=
EXTT1=
EXTT2=
EXTT3=
EXTT4=
EXTT5=
EXTT6=
EXTT7=
EXTT8=
EXTT9=
EXTT10=
EXTT11=
PLAYORDER=
